<svg width="203" height="128" viewBox="0 0 203 128" fill="none" xmlns="http://www.w3.org/2000/svg">
<g filter="url(#filter0_d_105_84)">
<path d="M7.3845 68.36V69.3955L8.11673 70.1278L16.7567 78.7678L17.489 79.5H18.5245H43.2925H44.32L45.0505 78.7775L53.7865 70.1375L54.5285 69.4036V68.36V14.6V13.5564L53.7865 12.8225L45.0505 4.18248L44.32 3.45999H43.2925H18.5245H17.489L16.7567 4.19222L8.11673 12.8322L7.3845 13.5645V14.6V68.36ZM36.7605 21.516V24.3734L25.0565 35.472V21.516H36.7605ZM36.7605 61.828H25.0565V60.6986L36.7605 49.6V61.828Z" fill="#6C9EFF" stroke="white" stroke-width="5"/>
<path d="M63.9442 90.7678L64.6765 91.5H65.712H90.48H91.5074L92.238 90.7775L100.974 82.1375L101.716 81.4036V80.36V26.6V25.5564L100.974 24.8225L92.238 16.1825L91.5074 15.46H90.48H65.712H64.6765L63.9442 16.1922L55.3042 24.8322L54.572 25.5645V26.6V51.368V52.4035L55.3042 53.1358L63.9442 61.7758L64.6765 62.508H65.712H83.564V73.444H72.628V68.168V65.668H70.128H57.072H54.572V68.168V80.36V81.3955L55.3042 82.1278L63.9442 90.7678ZM72.628 33.516H83.564V44.452H72.628V33.516Z" fill="#FF6C6C" stroke="white" stroke-width="5"/>
<path d="M101.572 102V104.5H104.072H117.128H119.628V102V76.084H135.08H136.116L136.848 75.3518L147.888 64.3118L148.62 63.5795V62.544V42V40.9645L147.888 40.2322L136.848 29.1922L136.116 28.46H135.08H104.072H101.572V30.96V102ZM119.628 46.516H128.764L130.564 48.3155V56.1325L128.668 58.028H119.628V46.516Z" fill="#FFDF6C" stroke="white" stroke-width="5"/>
<path d="M157.944 116.768L158.676 117.5H159.712H184.48H185.507L186.238 116.777L194.974 108.137L195.716 107.404V106.36V52.6V51.5564L194.974 50.8225L186.238 42.1825L185.507 41.46H184.48H159.712H158.676L157.944 42.1922L149.304 50.8322L148.572 51.5645V52.6V77.368V78.4035L149.304 79.1358L157.944 87.7758L158.676 88.508H159.712H177.564V99.444H166.628V94.168V91.668H164.128H151.072H148.572V94.168V106.36V107.396L149.304 108.128L157.944 116.768ZM166.628 59.516H177.564V70.452H166.628V59.516Z" fill="#FF6C6C" stroke="white" stroke-width="5"/>
</g>
<defs>
<filter id="filter0_d_105_84" x="0.884499" y="0.959991" width="201.332" height="127.04" filterUnits="userSpaceOnUse" color-interpolation-filters="sRGB">
<feFlood flood-opacity="0" result="BackgroundImageFix"/>
<feColorMatrix in="SourceAlpha" type="matrix" values="0 0 0 0 0 0 0 0 0 0 0 0 0 0 0 0 0 0 127 0" result="hardAlpha"/>
<feOffset dy="4"/>
<feGaussianBlur stdDeviation="2"/>
<feComposite in2="hardAlpha" operator="out"/>
<feColorMatrix type="matrix" values="0 0 0 0 0 0 0 0 0 0 0 0 0 0 0 0 0 0 0.25 0"/>
<feBlend mode="normal" in2="BackgroundImageFix" result="effect1_dropShadow_105_84"/>
<feBlend mode="normal" in="SourceGraphic" in2="effect1_dropShadow_105_84" result="shape"/>
</filter>
</defs>
</svg>
